<svg width="10" height="10" viewBox="0 0 10 10" fill="none" xmlns="http://www.w3.org/2000/svg">
<path fill-rule="evenodd" clip-rule="evenodd" d="M1.07745 1.07733C1.40289 0.751893 1.93053 0.751893 2.25596 1.07733L5.00004 3.82141L7.74412 1.07733C8.06955 0.751893 8.59719 0.751893 8.92263 1.07733C9.24807 1.40277 9.24807 1.9304 8.92263 2.25584L6.17855 4.99992L8.92263 7.744C9.24807 8.06943 9.24807 8.59707 8.92263 8.92251C8.59719 9.24794 8.06955 9.24794 7.74412 8.92251L5.00004 6.17843L2.25596 8.92251C1.93053 9.24794 1.40289 9.24794 1.07745 8.92251C0.752015 8.59707 0.752015 8.06943 1.07745 7.744L3.82153 4.99992L1.07745 2.25584C0.752015 1.9304 0.752015 1.40277 1.07745 1.07733Z" fill="black"/>
</svg>
