<svg width="22" height="22" viewBox="0 0 22 22" fill="none" xmlns="http://www.w3.org/2000/svg">
<path fill-rule="evenodd" clip-rule="evenodd" d="M14.7601 1.92139L13.2348 0.756259C11.9153 -0.251905 10.0854 -0.25178 8.76579 0.756259L7.23914 1.92167L5.3408 2.17405C3.6934 2.39241 2.39657 3.68788 2.17671 5.33545L1.92198 7.24043L0.755363 8.76622C-0.251833 10.0846 -0.251765 11.9154 0.755431 13.2339L1.92158 14.76L2.17327 16.6593C2.39149 18.3069 3.68717 19.6038 5.33488 19.8237L7.24024 20.0784L8.76591 21.2438C10.0855 22.2521 11.9152 22.252 13.2348 21.2437L14.7615 20.0773L16.6593 19.826C18.3071 19.6078 19.6042 18.3123 19.8239 16.6644L20.0777 14.7593L21.244 13.2339C22.2529 11.9137 22.2508 10.0843 21.2445 8.76555L20.0802 7.2393L19.8285 5.33958C19.6102 3.69185 18.3145 2.39489 16.6667 2.17519L14.7601 1.92139ZM8.28559 3.63898C8.1437 3.75998 7.96663 3.84255 7.76902 3.86882L5.60438 4.15661C4.85195 4.25623 4.25946 4.84765 4.15917 5.59979L3.86909 7.76911C3.84599 7.94183 3.77816 8.10553 3.67231 8.24397L2.34467 9.98035C1.88532 10.5819 1.88515 11.4181 2.34467 12.0196L3.6725 13.7574C3.77848 13.8961 3.84631 14.0601 3.86925 14.2332L4.15594 16.3966C4.25555 17.1488 4.8469 17.7409 5.59919 17.8412L7.76864 18.1313C7.94122 18.1543 8.10479 18.2221 8.24315 18.3278L9.97997 19.6545C10.5827 20.115 11.4178 20.1151 12.0205 19.6546L13.7147 18.3602C13.8568 18.2389 14.0342 18.1562 14.2321 18.13L16.3967 17.8433C17.1492 17.7437 17.7412 17.1523 17.8415 16.4002L18.1304 14.2314C18.1534 14.0585 18.2213 13.8946 18.3272 13.756L19.655 12.0195C20.1151 11.4174 20.115 10.5823 19.6545 9.97879L18.3287 8.24086C18.223 8.10229 18.1554 7.93849 18.1325 7.76572L17.8458 5.60232C17.7462 4.85011 17.1549 4.25808 16.4027 4.1577L14.2325 3.8688C14.0598 3.8458 13.896 3.77804 13.7575 3.67223L12.0207 2.34552C11.4179 1.88495 10.5829 1.88485 9.9801 2.34543L8.28559 3.63898Z" fill="black"/>
<path d="M9.1655 9.17621C9.50874 8.89914 9.63822 8.41664 9.45134 7.99395C9.22803 7.48883 8.63751 7.26038 8.13239 7.48369C7.9939 7.54492 7.86478 7.63167 7.7529 7.74236C7.64415 7.84994 7.55795 7.97414 7.49587 8.10778C7.26318 8.60865 7.48058 9.20332 7.98145 9.43601C8.39895 9.62997 8.88162 9.5112 9.1655 9.17621Z" fill="black"/>
<path d="M14.0404 9.37372C14.4309 8.98321 14.4309 8.35005 14.0404 7.95951C13.6499 7.56897 13.0168 7.56896 12.6262 7.95947L7.95913 12.6263C7.56859 13.0168 7.56857 13.6499 7.95909 14.0405C8.3496 14.431 8.98276 14.431 9.3733 14.0405L14.0404 9.37372Z" fill="black"/>
<path d="M14.5545 13.7688C14.7335 13.2464 14.455 12.6777 13.9325 12.4988C13.5171 12.3565 13.0726 12.5034 12.8179 12.8321C12.4942 13.095 12.358 13.5445 12.5115 13.9571C12.7041 14.4747 13.2798 14.7382 13.7974 14.5456C13.9633 14.4838 14.118 14.3866 14.249 14.2563C14.3904 14.116 14.4931 13.9482 14.5545 13.7688Z" fill="black"/>
</svg>
