<svg width="18" height="16" viewBox="0 0 18 16" fill="none" xmlns="http://www.w3.org/2000/svg">
<path fill-rule="evenodd" clip-rule="evenodd" d="M5.91669 2.16667C3.85701 2.16667 2.33335 4.14489 2.33335 6.13333C2.33335 7.08512 2.7077 8.04308 3.34251 8.97776C3.97655 9.91129 4.83932 10.7749 5.73315 11.5189C6.62375 12.2602 7.52217 12.8639 8.20641 13.282C8.5303 13.4799 8.80295 13.6343 9.00002 13.7402C9.19709 13.6343 9.46974 13.4799 9.79364 13.282C10.4779 12.8639 11.3763 12.2602 12.2669 11.5189C13.1607 10.7749 14.0235 9.91129 14.6575 8.97776C15.2923 8.04308 15.6667 7.08512 15.6667 6.13333C15.6667 4.14489 14.143 2.16667 12.0834 2.16667C10.88 2.16667 10.1009 2.75792 9.63106 3.30261C9.47276 3.48614 9.24239 3.59167 9.00002 3.59167C8.75765 3.59167 8.52728 3.48614 8.36898 3.30261C7.89919 2.75792 7.12004 2.16667 5.91669 2.16667ZM0.666687 6.13333C0.666687 3.48845 2.69303 0.5 5.91669 0.5C7.27569 0.5 8.28957 1.01037 9.00002 1.59608C9.71047 1.01037 10.7243 0.5 12.0834 0.5C15.307 0.5 17.3334 3.48845 17.3334 6.13333C17.3334 7.52738 16.7869 8.809 16.0363 9.91417C15.2849 11.0205 14.2977 11.997 13.3332 12.7999C12.3654 13.6054 11.3972 14.2554 10.6627 14.7042C10.2948 14.9289 9.98199 15.1055 9.75265 15.2278C9.63865 15.2886 9.54122 15.3381 9.46552 15.3743C9.42878 15.3918 9.38972 15.4098 9.35286 15.4251C9.33546 15.4323 9.30816 15.4433 9.27647 15.454C9.26092 15.4592 9.23454 15.4676 9.20185 15.4756L9.20126 15.4757C9.18045 15.4808 9.10174 15.5 9.00002 15.5C8.8983 15.5 8.81959 15.4808 8.79878 15.4757L8.79819 15.4756C8.7655 15.4676 8.73912 15.4592 8.72357 15.454C8.69188 15.4433 8.66458 15.4323 8.64718 15.4251C8.61032 15.4098 8.57126 15.3918 8.53452 15.3743C8.45882 15.3381 8.3614 15.2886 8.24739 15.2278C8.01805 15.1055 7.70521 14.9289 7.33739 14.7042C6.60287 14.2554 5.63462 13.6054 4.66689 12.7999C3.70238 11.997 2.71516 11.0205 1.96378 9.91417C1.21317 8.809 0.666687 7.52738 0.666687 6.13333Z" fill="#19224C"/>
</svg>
