<svg width="6" height="12" viewBox="0 0 6 12" fill="none" xmlns="http://www.w3.org/2000/svg">
<path d="M3.48613 0.377411C3.28057 0.240059 3.03889 0.166748 2.79167 0.166748C2.46015 0.166748 2.1422 0.298444 1.90778 0.532864C1.67336 0.767285 1.54167 1.08523 1.54167 1.41675C1.54167 1.66397 1.61498 1.90565 1.75233 2.11121C1.88968 2.31677 2.0849 2.47699 2.31331 2.5716C2.54172 2.66621 2.79305 2.69096 3.03553 2.64273C3.27801 2.5945 3.50073 2.47545 3.67555 2.30063C3.85037 2.12582 3.96942 1.90309 4.01765 1.66061C4.06588 1.41813 4.04113 1.1668 3.94652 0.938394C3.85191 0.709986 3.69169 0.514763 3.48613 0.377411Z" fill="#19224C"/>
<path d="M1.33333 11.4167H4.66667C4.88768 11.4167 5.09964 11.329 5.25592 11.1727C5.4122 11.0164 5.5 10.8044 5.5 10.5834C5.5 10.3624 5.4122 10.1504 5.25592 9.99416C5.09964 9.83788 4.88768 9.75008 4.66667 9.75008H4.04167C3.98641 9.75008 3.93342 9.72813 3.89435 9.68906C3.85528 9.64999 3.83333 9.597 3.83333 9.54175V5.58341C3.83333 5.14139 3.65774 4.71746 3.34518 4.4049C3.03262 4.09234 2.60869 3.91675 2.16667 3.91675H1.33333C1.11232 3.91675 0.900358 4.00455 0.744078 4.16083C0.587798 4.31711 0.5 4.52907 0.5 4.75008C0.5 4.9711 0.587798 5.18306 0.744078 5.33934C0.900358 5.49562 1.11232 5.58341 1.33333 5.58341H1.95833C2.01359 5.58341 2.06658 5.60536 2.10565 5.64443C2.14472 5.6835 2.16667 5.73649 2.16667 5.79175V9.54175C2.16667 9.597 2.14472 9.64999 2.10565 9.68906C2.06658 9.72813 2.01359 9.75008 1.95833 9.75008H1.33333C1.11232 9.75008 0.900358 9.83788 0.744078 9.99416C0.587798 10.1504 0.5 10.3624 0.5 10.5834C0.5 10.8044 0.587798 11.0164 0.744078 11.1727C0.900358 11.329 1.11232 11.4167 1.33333 11.4167Z" fill="#19224C"/>
</svg>
