<svg width="16" height="16" viewBox="0 0 16 16" fill="none" xmlns="http://www.w3.org/2000/svg">
<path d="M15.8631 0.137553C15.7286 0.00282998 15.5262 -0.0371402 15.3508 0.0363937L0.287481 6.3494C0.100068 6.42793 -0.0153731 6.61847 0.00165875 6.8211C0.0186906 7.02373 0.164321 7.19227 0.362203 7.23836L6.92515 8.76698C7.05194 8.79651 7.15107 8.89524 7.18113 9.0219L8.75053 15.6358C8.79734 15.8331 8.96566 15.9779 9.16764 15.9946C9.18061 15.9957 9.19351 15.9962 9.20636 15.9962C9.39352 15.9962 9.56443 15.8841 9.6379 15.7091L15.9634 0.650478C16.0371 0.474972 15.9975 0.272277 15.8631 0.137553Z" fill="black"/>
</svg>
