<svg width="14" height="3" viewBox="0 0 14 3" fill="none" xmlns="http://www.w3.org/2000/svg">
<path d="M8.49995 1.5C8.49995 2.32843 7.82838 3 6.99995 3C6.17152 3 5.49995 2.32843 5.49995 1.5C5.49995 0.671573 6.17152 0 6.99995 0C7.82838 0 8.49995 0.671573 8.49995 1.5Z" fill="black"/>
<path d="M3 1.50005C3 2.32848 2.32843 3.00005 1.5 3.00005C0.671573 3.00005 0 2.32848 0 1.50005C0 0.671624 0.671573 5.14984e-05 1.5 5.14984e-05C2.32843 5.14984e-05 3 0.671624 3 1.50005Z" fill="black"/>
<path d="M13.9999 1.5C13.9999 2.32843 13.3284 3 12.4999 3C11.6715 3 10.9999 2.32843 10.9999 1.5C10.9999 0.671573 11.6715 0 12.4999 0C13.3284 0 13.9999 0.671573 13.9999 1.5Z" fill="black"/>
</svg>
