<svg width="20" height="20" viewBox="0 0 20 20" fill="none" xmlns="http://www.w3.org/2000/svg">
<path fill-rule="evenodd" clip-rule="evenodd" d="M6.82112 1.60289C5.6496 0.431362 3.75043 0.431362 2.57891 1.60289L1.92691 2.25489C0.938218 3.24357 0.543839 4.65259 0.801352 6.0174C1.33774 8.8546 2.96726 11.8915 5.53791 14.4621C8.10855 17.0327 11.1454 18.6623 13.9826 19.1987C15.3474 19.4562 16.7564 19.0618 17.7451 18.0731L18.3961 17.4221C19.5676 16.2506 19.5676 14.3514 18.3961 13.1799L17.2231 12.0069C16.2469 11.0307 14.6633 11.0298 13.6873 12.0075L12.902 12.7937C11.745 12.2582 10.598 11.4718 9.56312 10.4369C8.52829 9.40206 7.74279 8.25514 7.20823 7.09814L7.91012 6.3971C8.93525 5.37197 9.00707 3.78884 7.99512 2.77689L6.82112 1.60289ZM5.40691 3.0171C5.01643 2.62662 4.3836 2.62662 3.99312 3.0171L3.34112 3.6691C2.95707 4.05315 2.73647 4.58005 2.72483 5.15095C2.72152 5.31324 2.7351 5.47909 2.76661 5.64623C3.21829 8.03494 4.62488 10.7207 6.95212 13.0479C9.27947 15.3752 11.965 16.7818 14.3538 17.2334C15.1088 17.3757 15.8377 17.1521 16.3309 16.6589L16.9819 16.0079C17.3724 15.6174 17.3724 14.9846 16.9819 14.5941L15.8089 13.4211C15.6131 13.2253 15.2967 13.2262 15.1027 13.4205L14.1995 14.3247C13.7126 14.8116 12.9476 15.0017 12.2613 14.6989C10.8167 14.0608 9.4042 13.1064 8.14891 11.8511C6.89346 10.5957 5.94004 9.18307 5.30301 7.73845C5.00032 7.0522 5.19047 6.28732 5.67734 5.80046L6.4961 4.98269C6.66136 4.81734 6.71392 4.65176 6.71725 4.52819C6.72058 4.40445 6.67707 4.28727 6.58091 4.1911L6.0451 3.65529L5.40691 3.0171Z" fill="black"/>
</svg>
