<svg width="18" height="18" viewBox="0 0 18 18" fill="none" xmlns="http://www.w3.org/2000/svg">
<path fill-rule="evenodd" clip-rule="evenodd" d="M0 9C0 4.02944 4.02944 0 9 0C11.2752 0 13.3912 0.845431 15 2.24407V1C15 0.447715 15.4477 0 16 0C16.5523 0 17 0.447715 17 1V5C17 5.55228 16.5523 6 16 6H12C11.4477 6 11 5.55228 11 5C11 4.44772 11.4477 4 12 4H13.9572C12.677 2.76514 10.9119 2 9 2C5.13401 2 2 5.13401 2 9C2 12.866 5.13401 16 9 16C12.866 16 16 12.866 16 9C16 8.44772 16.4477 8 17 8C17.5523 8 18 8.44772 18 9C18 13.9706 13.9706 18 9 18C4.02944 18 0 13.9706 0 9Z" fill="black"/>
</svg>
