<svg width="21" height="19" viewBox="0 0 21 19" fill="none" xmlns="http://www.w3.org/2000/svg">
<path d="M19.857 1.1618C19.6362 0.898602 19.1582 0.986285 18.8815 1.09215C18.8815 1.09215 1.35842 7.96841 0.357654 8.72981C0.142668 8.89355 0.0701722 8.98907 0.0343411 9.10096C-0.138981 9.64677 0.400151 9.88146 0.400151 9.88146L4.91653 11.488C4.9929 11.5029 5.07142 11.4979 5.14568 11.4734C6.17228 10.7648 15.4784 4.34698 16.0192 4.13139C16.1025 4.1041 16.1666 4.13139 16.15 4.19961C15.935 5.02287 7.89301 12.8215 7.84884 12.8688C7.82733 12.8881 7.81057 12.9129 7.80009 12.941C7.78961 12.9692 7.78575 12.9997 7.78885 13.0299L7.36721 17.8439C7.36721 17.8439 7.19055 19.3421 8.56296 17.8439C9.53623 16.7805 10.4703 15.8999 10.937 15.4714C12.4902 16.6422 14.1609 17.9367 14.8817 18.6144C15.003 18.7425 15.1466 18.8426 15.3041 18.9087C15.4616 18.9748 15.6297 19.0056 15.7983 18.9992C16.006 18.9715 16.201 18.8755 16.3575 18.7239C16.5139 18.5723 16.6244 18.3723 16.6741 18.1504C16.6741 18.1504 19.6719 4.19961 19.9722 2.24108C20 2 20.1952 1.5 19.857 1.1618Z" fill="black"/>
</svg>
