<svg width="18" height="10" viewBox="0 0 18 10" fill="none" xmlns="http://www.w3.org/2000/svg">
<path d="M17.7623 8.44738C17.2605 7.71381 16.6524 7.05039 15.9558 6.47647C14.9889 5.62571 14.9889 5.62571 15.9558 4.46302L16.548 3.75406C18.0471 1.89658 18.0846 1.27979 17.9497 0.918216C17.7323 0.351047 16.8253 0.421944 16.6904 0.436123H14.1494C13.9507 0.410424 13.7486 0.445186 13.5722 0.535377C13.4008 0.643943 13.2656 0.796399 13.1824 0.974933C12.7177 2.14472 11.4434 4.31414 10.9337 4.51974C10.7706 3.98313 10.7348 3.41908 10.8288 2.86786C10.9112 1.70516 11.0012 0.386495 9.95927 0.145449C9.53489 0.0493285 9.09856 0.00877528 8.66251 0.0249253C7.87813 -0.0471134 7.0865 0.0374226 6.33885 0.273062C6.04651 0.407764 5.65674 0.748065 5.70921 1.07419C5.73025 1.15525 5.77526 1.22896 5.83898 1.28672C5.90269 1.34447 5.98248 1.38387 6.069 1.40031C6.26148 1.41261 6.44265 1.49073 6.57871 1.62009C6.84407 2.58716 6.84407 3.60229 6.57871 4.56936C6.08399 4.42757 4.86219 2.3645 4.33 1.08128C4.25746 0.914757 4.14139 0.76839 3.99269 0.6559C3.80705 0.536312 3.59362 0.460914 3.37055 0.436123H0.896963C0.610337 0.441831 0.336842 0.550881 0.1324 0.740976C0.059167 0.852283 0.0148708 0.978424 0.0031443 1.10905C-0.00858221 1.23968 0.0125949 1.37108 0.0649391 1.49247C0.147392 1.66262 2.04381 5.69661 4.24754 7.87312C4.81546 8.47623 5.51878 8.95158 6.30603 9.26439C7.09328 9.57719 7.94452 9.71953 8.79744 9.68097C9.39394 9.68425 9.98922 9.6296 10.5739 9.51791C10.793 9.23555 10.8992 8.88893 10.8737 8.53954C10.8737 8.02909 10.9487 7.83058 11.1811 7.79513C11.4134 7.75969 11.8632 8.34103 12.0955 8.58917C12.4056 8.96242 12.7631 9.29816 13.1599 9.5888C13.5199 9.83901 13.9504 9.98216 14.3967 10H16.8478C17.0543 9.99426 17.2566 9.94325 17.4387 9.85098C17.6208 9.75871 17.7778 9.6277 17.8972 9.46828C17.9789 9.30342 18.0096 9.12005 17.9858 8.93939C17.9619 8.75872 17.8844 8.58813 17.7623 8.44738Z" fill="black"/>
</svg>
