<svg width="22" height="22" viewBox="0 0 22 22" fill="none" xmlns="http://www.w3.org/2000/svg">
<path fill-rule="evenodd" clip-rule="evenodd" d="M7.79771 2C4.57695 2 2 4.55499 2 7.66667V14.3333C2 17.445 4.57695 20 7.79771 20H14.2034C17.4232 20 20.001 17.4449 20 14.3336V7.66667C20 4.55499 17.423 2 14.2023 2H7.79771ZM0 7.66667C0 3.4139 3.50926 0 7.79771 0H14.2023C18.4907 0 22 3.4139 22 7.66667V14.333C22.0011 18.5861 18.4905 22 14.2034 22H7.79771C3.50926 22 0 18.5861 0 14.3333V7.66667ZM8.73466 7.22222C9.28695 7.22222 9.73466 7.66994 9.73466 8.22222V9.33333C9.73466 9.88562 9.28695 10.3333 8.73466 10.3333C8.18238 10.3333 7.73466 9.88562 7.73466 9.33333V8.22222C7.73466 7.66994 8.18238 7.22222 8.73466 7.22222ZM13.2665 7.22222C13.8188 7.22222 14.2665 7.66994 14.2665 8.22222V9.33333C14.2665 9.88562 13.8188 10.3333 13.2665 10.3333C12.7142 10.3333 12.2665 9.88562 12.2665 9.33333V8.22222C12.2665 7.66994 12.7142 7.22222 13.2665 7.22222Z" fill="black"/>
<path d="M11.0006 13.8889C9.96068 13.8889 9.12051 13.5834 8.53759 13.2757L7.68733 12.7048C7.28828 12.3271 6.65854 12.342 6.2779 12.7393C5.6934 13.3494 5.93047 13.8968 6.67473 14.4576C6.892 14.6213 7.20459 14.8335 7.60381 15.0443C8.40144 15.4654 9.56155 15.8889 11.0006 15.8889C12.4403 15.8889 13.5931 15.465 14.3844 15.0418C14.7802 14.8302 15.0891 14.6169 15.3037 14.4522L15.3143 14.4441C15.4368 14.3501 15.5697 14.2482 15.6797 14.1406C16.074 13.7539 16.0666 13.1252 15.6799 12.7309C15.1455 12.186 14.5646 12.4984 14.0861 12.8656C13.9445 12.9742 13.7269 13.1254 13.4412 13.2782C12.8696 13.5839 12.0397 13.8889 11.0006 13.8889Z" fill="black"/>
</svg>
