<svg width="17" height="16" viewBox="0 0 17 16" fill="none" xmlns="http://www.w3.org/2000/svg">
<path fill-rule="evenodd" clip-rule="evenodd" d="M7.72 1.28084C8.11056 1.67133 8.11061 2.3045 7.72012 2.69505L3.43588 6.98001H16C16.5522 6.98001 17 7.42772 17 7.98001C17 8.53229 16.5522 8.98001 16 8.98001H3.39589L7.72012 13.305C8.11061 13.6955 8.11056 14.3287 7.72 14.7192C7.32944 15.1097 6.69628 15.1096 6.30579 14.7191L0.294788 8.70705C0.000640243 8.41286 -0.0719076 7.98099 0.0771444 7.61889C0.143861 7.44667 0.256896 7.29753 0.400964 7.18677L6.30579 1.28096C6.69628 0.890402 7.32944 0.890349 7.72 1.28084Z" fill="black"/>
</svg>
