<svg width="20" height="19" viewBox="0 0 20 19" fill="none" xmlns="http://www.w3.org/2000/svg">
<path fill-rule="evenodd" clip-rule="evenodd" d="M8.21864 4.87535C7.562 4.87535 6.9118 5.00469 6.30516 5.25598C5.69852 5.50727 5.1473 5.8756 4.68301 6.33991L1.65199 9.37093C0.594232 10.4288 0 11.8635 0 13.3595C0 14.8555 0.594311 16.2903 1.65207 17.3481C2.70994 18.4059 4.14466 19.0001 5.64064 19.0001C7.13661 19.0001 8.57177 18.4055 9.62964 17.3477L10.5166 16.4597C10.9069 16.069 10.9066 15.4358 10.5158 15.0455C10.1251 14.6552 9.49193 14.6555 9.10163 15.0463L8.21463 15.9343C7.53186 16.6167 6.60601 17.0001 5.64064 17.0001C4.67509 17.0001 3.74908 16.6166 3.06628 15.9339C2.38355 15.2511 2 14.3251 2 13.3595C2 12.3939 2.38357 11.4679 3.06628 10.7851L6.09726 7.75409C6.37584 7.47549 6.70656 7.2545 7.07055 7.10373C7.43454 6.95295 7.82466 6.87535 8.21864 6.87535C8.61261 6.87535 9.00273 6.95295 9.36672 7.10373C9.73071 7.2545 10.0615 7.47551 10.34 7.7541L11.293 8.7071C11.6836 9.09763 12.3167 9.09763 12.7072 8.7071C13.0978 8.31658 13.0978 7.68341 12.7072 7.29289L11.7542 6.33989C11.2899 5.87558 10.7387 5.50727 10.1321 5.25598C9.52547 5.00469 8.87527 4.87535 8.21864 4.87535Z" fill="black"/>
<path d="M14.3596 -0.000137329C12.8637 -0.000137329 11.4289 0.594095 10.3711 1.65185L9.48363 2.54029C9.09333 2.93103 9.09368 3.5642 9.48443 3.9545C9.87517 4.34481 10.5083 4.34445 10.8986 3.95371L11.7852 3.06614C12.1544 2.69694 12.5948 2.41522 13.0741 2.23435C13.4811 2.08075 13.9162 1.99986 14.3596 1.99986C15.3252 1.99986 16.2513 2.38346 16.9341 3.06614C17.6168 3.74894 18.0003 4.67495 18.0003 5.6405C18.0003 6.60606 17.6167 7.53212 16.934 8.21493L13.903 11.2459C13.6244 11.5245 13.2937 11.7455 12.9297 11.8963C12.5657 12.047 12.1756 12.1246 11.7816 12.1246C11.3877 12.1246 10.9975 12.047 10.6335 11.8963C10.2696 11.7455 9.93882 11.5245 9.66024 11.2459L8.70724 10.2929C8.31672 9.90237 7.68355 9.90237 7.29303 10.2929C6.9025 10.6834 6.9025 11.3166 7.29303 11.7071L8.24603 12.6601C8.71032 13.1244 9.26152 13.4927 9.86816 13.744C10.4748 13.9953 11.125 14.1246 11.7816 14.1246C12.4383 14.1246 13.0885 13.9953 13.6951 13.744C14.3017 13.4927 14.853 13.1244 15.3173 12.6601L18.3483 9.62906C19.406 8.57119 20.0003 7.13648 20.0003 5.6405C20.0003 4.14452 19.406 2.70973 18.3482 1.65185C17.2903 0.594095 15.8556 -0.000137329 14.3596 -0.000137329Z" fill="black"/>
</svg>
