<svg width="20" height="19" viewBox="0 0 20 19" fill="none" xmlns="http://www.w3.org/2000/svg">
<path d="M5.7328 18.829C5.48434 18.9587 5.20452 19.0162 4.92506 18.9949C4.6456 18.9737 4.37768 18.8746 4.15167 18.7089C3.92566 18.5431 3.7506 18.3174 3.64634 18.0573C3.54208 17.7971 3.5128 17.5129 3.5618 17.237L4.3708 12.6L0.964796 9.336C0.76077 9.14143 0.615708 8.8933 0.546244 8.62006C0.47678 8.34683 0.485725 8.05954 0.572056 7.79116C0.658386 7.52277 0.818605 7.28415 1.03434 7.10265C1.25008 6.92115 1.5126 6.80413 1.7918 6.765L6.5208 6.089L8.6558 1.83C8.77989 1.57959 8.97148 1.36884 9.20895 1.2215C9.44642 1.07415 9.72033 0.996078 9.9998 0.996078C10.2793 0.996078 10.5532 1.07415 10.7906 1.2215C11.0281 1.36884 11.2197 1.57959 11.3438 1.83L13.4788 6.089L18.2078 6.765C18.487 6.80413 18.7495 6.92115 18.9653 7.10265C19.181 7.28415 19.3412 7.52277 19.4275 7.79116C19.5139 8.05954 19.5228 8.34683 19.4533 8.62006C19.3839 8.8933 19.2388 9.14143 19.0348 9.336L15.6288 12.6L16.4378 17.238C16.4868 17.5139 16.4575 17.7981 16.3532 18.0583C16.249 18.3184 16.0739 18.5441 15.8479 18.7099C15.6219 18.8756 15.354 18.9747 15.0745 18.9959C14.7951 19.0172 14.5153 18.9597 14.2668 18.83L9.9998 16.625L5.7328 18.829Z" fill="black"/>
</svg>
