<svg width="20" height="20" viewBox="0 0 20 20" fill="none" xmlns="http://www.w3.org/2000/svg">
<path fill-rule="evenodd" clip-rule="evenodd" d="M13.0615 2.60897C11.5997 2.00347 9.99113 1.84504 8.43928 2.15372C6.88743 2.4624 5.46197 3.22433 4.34315 4.34315C3.22433 5.46197 2.4624 6.88743 2.15372 8.43928C1.84504 9.99113 2.00347 11.5997 2.60897 13.0615C3.21447 14.5233 4.23985 15.7727 5.55544 16.6518C6.87104 17.5308 8.41775 18 10 18H15C15.5523 18 16 18.4477 16 19C16 19.5523 15.5523 20 15 20H10C8.02219 20 6.08879 19.4135 4.4443 18.3147C2.79981 17.2159 1.51809 15.6541 0.761209 13.8268C0.00433278 11.9996 -0.1937 9.98891 0.192152 8.0491C0.578004 6.10929 1.53041 4.32746 2.92894 2.92894C4.32746 1.53041 6.10929 0.578004 8.0491 0.192152C9.98891 -0.1937 11.9996 0.00433278 13.8268 0.761209C15.6541 1.51809 17.2159 2.79981 18.3147 4.4443C19.4135 6.08879 20 8.02219 20 10V11.5C20 12.4283 19.6313 13.3185 18.9749 13.9749C18.3185 14.6313 17.4283 15 16.5 15C15.5717 15 14.6815 14.6313 14.0251 13.9749C13.8679 13.8177 13.7272 13.647 13.6041 13.4656C13.1283 13.9604 12.5534 14.3543 11.9134 14.6194C10.9998 14.9978 9.99446 15.0969 9.02455 14.9039C8.05465 14.711 7.16373 14.2348 6.46447 13.5355C5.76521 12.8363 5.289 11.9454 5.09608 10.9755C4.90315 10.0056 5.00217 9.00022 5.38061 8.08659C5.75905 7.17296 6.39991 6.39206 7.22215 5.84266C8.0444 5.29325 9.0111 5 10 5C11.3261 5 12.5979 5.52679 13.5355 6.46447C14.4732 7.40215 15 8.67392 15 10V11.5C15 11.8978 15.158 12.2794 15.4393 12.5607C15.7206 12.842 16.1022 13 16.5 13C16.8978 13 17.2794 12.842 17.5607 12.5607C17.842 12.2794 18 11.8978 18 11.5V10C18 8.41775 17.5308 6.87104 16.6518 5.55544C15.7727 4.23985 14.5233 3.21447 13.0615 2.60897ZM13 10C13 9.20435 12.6839 8.44129 12.1213 7.87868C11.5587 7.31608 10.7957 7 10 7C9.40666 7 8.82664 7.17595 8.33329 7.5056C7.83995 7.83524 7.45543 8.30378 7.22837 8.85195C7.0013 9.40013 6.94189 10.0033 7.05765 10.5853C7.1734 11.1672 7.45913 11.7018 7.87868 12.1213C8.29824 12.5409 8.83279 12.8266 9.41473 12.9424C9.99668 13.0581 10.5999 12.9987 11.1481 12.7716C11.6962 12.5446 12.1648 12.1601 12.4944 11.6667C12.8241 11.1734 13 10.5933 13 10Z" fill="black"/>
</svg>
