<svg width="20" height="18" viewBox="0 0 20 18" fill="none" xmlns="http://www.w3.org/2000/svg">
<path fill-rule="evenodd" clip-rule="evenodd" d="M6.3 2C3.82839 2 2 4.37386 2 6.76C2 7.90215 2.44922 9.0517 3.21099 10.1733C3.97184 11.2936 5.00716 12.3298 6.07976 13.2227C7.14848 14.1123 8.22658 14.8367 9.04766 15.3384C9.43634 15.5759 9.76351 15.7611 10 15.8883C10.2365 15.7611 10.5637 15.5759 10.9523 15.3384C11.7734 14.8367 12.8515 14.1123 13.9202 13.2227C14.9928 12.3298 16.0282 11.2936 16.789 10.1733C17.5508 9.0517 18 7.90215 18 6.76C18 4.37386 16.1716 2 13.7 2C12.256 2 11.321 2.7095 10.7572 3.36313C10.5673 3.58337 10.2908 3.71 10 3.71C9.70915 3.71 9.43271 3.58337 9.24275 3.36313C8.679 2.7095 7.74403 2 6.3 2ZM0 6.76C0 3.58614 2.43161 0 6.3 0C7.93081 0 9.14746 0.612449 10 1.3153C10.8525 0.612449 12.0692 0 13.7 0C17.5684 0 20 3.58614 20 6.76C20 8.43285 19.3442 9.9708 18.4435 11.297C17.5418 12.6246 16.3572 13.7964 15.1998 14.7598C14.0385 15.7265 12.8766 16.5064 11.9952 17.045C11.5538 17.3147 11.1784 17.5266 10.9032 17.6733C10.7663 17.7463 10.6494 17.8057 10.5586 17.8491C10.5145 17.8702 10.4676 17.8918 10.4234 17.9101C10.4025 17.9188 10.3698 17.932 10.3317 17.9447C10.3131 17.951 10.2814 17.9611 10.2422 17.9707L10.2415 17.9709C10.2165 17.977 10.1221 18 10 18C9.87794 18 9.78348 17.977 9.75852 17.9709L9.75781 17.9707C9.71857 17.9611 9.68692 17.951 9.66826 17.9447C9.63023 17.932 9.59747 17.9188 9.57659 17.9101C9.53236 17.8918 9.48549 17.8702 9.4414 17.8491C9.35056 17.8057 9.23365 17.7463 9.09684 17.6733C8.82164 17.5266 8.44623 17.3147 8.00484 17.045C7.12342 16.5064 5.96152 15.7265 4.80024 14.7598C3.64284 13.7964 2.45816 12.6246 1.55651 11.297C0.655783 9.9708 0 8.43285 0 6.76Z" fill="black"/>
</svg>
