<svg width="18" height="22" viewBox="0 0 18 22" fill="none" xmlns="http://www.w3.org/2000/svg">
<path fill-rule="evenodd" clip-rule="evenodd" d="M10.4225 0.0402324C10.7683 0.141418 11.033 0.420891 11.1153 0.771764L11.572 2.71976C11.877 4.0219 12.627 5.19244 13.7063 6.03888C13.7064 6.03896 13.7062 6.03881 13.7063 6.03888L14.9463 7.01056C16.8725 8.51835 18 10.8005 18 13.222C18 18.0966 13.9442 22 9 22C4.05581 22 0 18.0966 0 13.222V13.032C0 10.7436 0.935217 8.55626 2.58833 6.94902C2.81572 6.72795 3.13449 6.62784 3.44744 6.67922C3.76038 6.7306 4.03041 6.92738 4.17517 7.20955L5.01373 8.84415C5.01383 8.84432 5.01364 8.84397 5.01373 8.84415C5.20833 9.22153 5.61007 9.50641 6.09146 9.59661C6.34737 9.64456 6.59318 9.63209 6.81081 9.56704L6.71278 9.26158C6.70183 9.22745 6.69272 9.19275 6.68549 9.15763C6.02107 5.92998 7.06236 2.59915 9.44459 0.283022C9.70298 0.0318014 10.0766 -0.0609534 10.4225 0.0402324ZM8.63407 8.70326L8.95217 9.69443C9.06823 10.0561 8.9694 10.4522 8.69709 10.717C7.86156 11.5293 6.72302 11.7497 5.72314 11.5624C4.72636 11.3756 3.75295 10.7642 3.23569 9.75987L3.08384 9.46388C2.38075 10.5209 2 11.7585 2 13.032V13.222C2 16.9394 5.10695 20 9 20C12.893 20 16 16.9394 16 13.222C16 11.4275 15.165 9.72166 13.7135 8.58545L12.4727 7.61313C11.0532 6.5 10.0506 4.95322 9.63405 3.21549C8.62526 4.84724 8.25576 6.79948 8.63407 8.70326Z" fill="black"/>
</svg>
