<svg width="20" height="20" viewBox="0 0 20 20" fill="none" xmlns="http://www.w3.org/2000/svg">
<path fill-rule="evenodd" clip-rule="evenodd" d="M5.496 2C3.56443 2 2 3.56514 2 5.496V14.504C2 16.4356 3.56514 18 5.496 18H14.504C16.4357 18 18 16.4347 18 14.505V5.496C18 3.56428 16.4347 2 14.505 2H5.496ZM0 5.496C0 2.46086 2.45957 0 5.496 0H14.505C17.5393 0 20 2.45971 20 5.496V14.505C20 17.5393 17.5403 20 14.504 20H5.496C2.46086 20 0 17.5404 0 14.504V5.496ZM14.1971 4.31072C14.4379 3.81372 15.0361 3.60606 15.5331 3.84691C15.6411 3.89926 15.7407 3.9655 15.8297 4.04323C15.9297 4.13052 16.0168 4.23278 16.0875 4.34706C16.3781 4.81673 16.2329 5.43302 15.7632 5.72359C15.348 5.98044 14.8183 5.89679 14.5002 5.54949C14.1218 5.26882 13.9841 4.75022 14.1971 4.31072ZM11.8385 8.16153C10.8231 7.14616 9.1769 7.14616 8.16154 8.16153C7.14617 9.17689 7.14617 10.8231 8.16154 11.8385C9.1769 12.8538 10.8231 12.8538 11.8385 11.8385C12.8539 10.8231 12.8539 9.17689 11.8385 8.16153ZM6.74732 6.74731C8.54374 4.9509 11.4563 4.9509 13.2527 6.74731C15.0491 8.54373 15.0491 11.4563 13.2527 13.2527C11.4563 15.0491 8.54374 15.0491 6.74732 13.2527C4.95091 11.4563 4.95091 8.54373 6.74732 6.74731Z" fill="black"/>
</svg>
