<svg width="20" height="22" viewBox="0 0 20 22" fill="none" xmlns="http://www.w3.org/2000/svg">
<path fill-rule="evenodd" clip-rule="evenodd" d="M10 2C7.86516 2 5.82569 2.8139 4.32829 4.2503C2.8323 5.68534 2 7.62258 2 9.63333C2 11.6441 2.8323 13.5813 4.32829 15.0164L9.19259 19.6825C9.3999 19.8813 9.68962 20 10 20C10.3104 20 10.6001 19.8813 10.8074 19.6825L15.6717 15.0164C17.1677 13.5813 18 11.6441 18 9.63333C18 7.62258 17.1677 5.68534 15.6717 4.2503C14.1743 2.8139 12.1348 2 10 2ZM2.94379 2.80699C4.82204 1.00526 7.36095 0 10 0C12.6391 0 15.178 1.00526 17.0562 2.80699C18.9359 4.61007 20 7.06467 20 9.63333C20 12.202 18.9359 14.6566 17.0562 16.4597L12.1919 21.1258C11.6038 21.69 10.8146 22 10 22C9.18541 22 8.39624 21.69 7.80808 21.1258L2.94378 16.4597C1.06412 14.6566 0 12.202 0 9.63333C0 7.06467 1.06412 4.61007 2.94379 2.80699ZM10.0005 7.6713C8.80775 7.6713 7.91252 8.58861 7.91252 9.63352C7.91252 10.6784 8.80775 11.5957 10.0005 11.5957C11.1933 11.5957 12.0886 10.6784 12.0886 9.63352C12.0886 8.58861 11.1933 7.6713 10.0005 7.6713ZM5.91252 9.63352C5.91252 7.40646 7.7824 5.6713 10.0005 5.6713C12.2187 5.6713 14.0886 7.40646 14.0886 9.63352C14.0886 11.8606 12.2187 13.5957 10.0005 13.5957C7.7824 13.5957 5.91252 11.8606 5.91252 9.63352Z" fill="black"/>
</svg>
