<svg width="6" height="14" viewBox="0 0 6 14" fill="none" xmlns="http://www.w3.org/2000/svg">
<path d="M3.58335 0.252796C3.33668 0.0879736 3.04667 0 2.75 0C2.35218 0 1.97064 0.158035 1.68934 0.43934C1.40804 0.720644 1.25 1.10218 1.25 1.5C1.25 1.79667 1.33797 2.08668 1.5028 2.33336C1.66762 2.58003 1.90189 2.77229 2.17597 2.88582C2.45006 2.99935 2.75166 3.02906 3.04264 2.97118C3.33361 2.9133 3.60088 2.77044 3.81066 2.56066C4.02044 2.35088 4.1633 2.08361 4.22118 1.79264C4.27906 1.50166 4.24935 1.20006 4.13582 0.925975C4.02229 0.651886 3.83003 0.417618 3.58335 0.252796Z" fill="black"/>
<path d="M1 13.5H5C5.26522 13.5 5.51957 13.3946 5.70711 13.2071C5.89464 13.0196 6 12.7652 6 12.5C6 12.2348 5.89464 11.9804 5.70711 11.7929C5.51957 11.6054 5.26522 11.5 5 11.5H4.25C4.1837 11.5 4.12011 11.4737 4.07322 11.4268C4.02634 11.3799 4 11.3163 4 11.25V6.5C4 5.96957 3.78929 5.46086 3.41421 5.08579C3.03914 4.71071 2.53043 4.5 2 4.5H1C0.734784 4.5 0.48043 4.60536 0.292893 4.79289C0.105357 4.98043 0 5.23478 0 5.5C0 5.76522 0.105357 6.01957 0.292893 6.20711C0.48043 6.39464 0.734784 6.5 1 6.5H1.75C1.8163 6.5 1.87989 6.52634 1.92678 6.57322C1.97366 6.62011 2 6.6837 2 6.75V11.25C2 11.3163 1.97366 11.3799 1.92678 11.4268C1.87989 11.4737 1.8163 11.5 1.75 11.5H1C0.734784 11.5 0.48043 11.6054 0.292893 11.7929C0.105357 11.9804 0 12.2348 0 12.5C0 12.7652 0.105357 13.0196 0.292893 13.2071C0.48043 13.3946 0.734784 13.5 1 13.5Z" fill="black"/>
</svg>
