<svg width="18" height="16" viewBox="0 0 18 16" fill="none" xmlns="http://www.w3.org/2000/svg">
<path fill-rule="evenodd" clip-rule="evenodd" d="M9.77441 1.28237C10.1641 0.891035 10.7973 0.889721 11.1886 1.27943L17.2256 7.29143C17.4141 7.47909 17.52 7.73407 17.52 8.00001C17.52 8.26594 17.4141 8.52093 17.2256 8.70858L11.1886 14.7206C10.7973 15.1103 10.1641 15.109 9.77441 14.7176C9.3847 14.3263 9.38601 13.6931 9.77734 13.3034L14.1187 8.98001H1.47998C0.927696 8.98001 0.47998 8.53229 0.47998 7.98001C0.47998 7.42772 0.927696 6.98001 1.47998 6.98001H14.0786L9.77734 2.69658C9.38601 2.30687 9.3847 1.6737 9.77441 1.28237Z" fill="black"/>
</svg>
