<svg width="18" height="19" viewBox="0 0 18 19" fill="none" xmlns="http://www.w3.org/2000/svg">
<path fill-rule="evenodd" clip-rule="evenodd" d="M10.486 4.28898C8.54473 2.34768 5.39727 2.34768 3.45597 4.28898C1.51468 6.23028 1.51468 9.37774 3.45597 11.319C5.36214 13.2252 8.43124 13.2597 10.3795 11.4225C10.4008 11.3968 10.4235 11.372 10.4477 11.3481C10.473 11.3232 10.4993 11.2998 10.5265 11.2781C12.4272 9.33375 12.4137 6.21669 10.486 4.28898ZM12.52 12.0248C14.604 9.29218 14.3974 5.37189 11.9002 2.87477C9.1779 0.152422 4.7641 0.152422 2.04176 2.87477C-0.680586 5.59711 -0.680586 10.0109 2.04176 12.7332C4.5091 15.2006 8.36585 15.4317 11.0935 13.4266L16.2881 18.6923C16.676 19.0855 17.3092 19.0898 17.7023 18.7019C18.0955 18.314 18.0998 17.6809 17.7119 17.2877L12.52 12.0248Z" fill="black"/>
</svg>
