<svg width="240" height="52" viewBox="0 0 240 52" fill="none" xmlns="http://www.w3.org/2000/svg">
<path fill-rule="evenodd" clip-rule="evenodd" d="M81.2597 10.3106V20.5765C80.6362 19.8986 79.8689 19.3659 78.9098 18.8817C77.9506 18.3974 76.8956 18.1553 75.6967 18.1553C74.0661 18.1553 72.5795 18.4943 71.2367 19.1238C69.8459 19.7533 68.695 20.625 67.6879 21.7388C66.6808 22.8525 65.9135 24.1116 65.338 25.6127C64.7625 27.1139 64.5227 28.6633 64.5227 30.3582C64.5227 32.053 64.8104 33.6026 65.3859 35.1038C65.9614 36.5565 66.7287 37.8641 67.7358 38.9778C68.7429 40.0916 69.8939 40.9632 71.2846 41.5927C72.6274 42.2222 74.1141 42.5612 75.6487 42.5612C77.0395 42.5612 78.2384 42.319 79.2455 41.7863C80.2526 41.2537 81.1158 40.5272 81.931 39.5103L82.1708 40.8663C82.2667 41.1569 82.3627 41.399 82.5065 41.5442C82.6503 41.6894 82.7944 41.8349 82.9861 41.8833C83.1779 41.9801 83.3698 42.0285 83.5616 42.0285H86.6308C87.0625 41.98 87.3981 41.8348 87.6379 41.5927C87.8777 41.3506 87.9736 41.0116 87.9736 40.5757V10.3106C87.9736 9.63267 87.4461 9.10001 86.7747 9.10001H82.5545C81.8352 9.10001 81.2597 9.63267 81.2597 10.3106ZM81.4994 32.731C81.2117 33.4574 80.8281 34.0869 80.3005 34.5712C79.821 35.1039 79.2455 35.5396 78.5741 35.8301C77.9027 36.1207 77.2313 36.3144 76.5119 36.3144C75.7926 36.3144 75.0732 36.1691 74.4498 35.8301C73.8263 35.5396 73.2509 35.1039 72.7713 34.5712C72.2917 34.0385 71.9081 33.4089 71.6203 32.6826C71.3326 31.9562 71.1887 31.1814 71.1887 30.3582C71.1887 29.535 71.3326 28.7603 71.6203 28.0339C71.9081 27.3076 72.2917 26.678 72.7713 26.1453C73.2509 25.6126 73.8263 25.1768 74.4498 24.8379C75.0732 24.4989 75.7926 24.3536 76.5119 24.3536C77.2313 24.3536 77.9506 24.4989 78.5741 24.8379C79.2455 25.1768 79.821 25.6126 80.3005 26.1453C80.7801 26.678 81.1637 27.3559 81.4515 28.0823C81.7392 28.8086 81.8831 29.6319 81.8831 30.4551C81.9311 31.2783 81.7872 32.0531 81.4994 32.731Z" fill="black"/>
<path d="M36.9458 30.2614C36.9458 32.2952 37.3294 34.1838 38.0488 35.9755C38.1927 36.4113 38.3845 36.7503 38.8161 37.2345V40.7209C38.8161 41.2052 38.6722 41.5442 38.3845 41.7864C38.0968 42.0285 37.7611 42.1737 37.3294 42.1737H33.7327C32.7256 42.1737 32.1981 41.7379 32.1981 40.8179V28.8571C32.1981 28.2276 32.1022 27.6949 31.9583 27.1623C31.7665 26.6296 31.5267 26.1938 31.239 25.8064C30.9033 25.419 30.5196 25.1285 30.088 24.8864C29.6084 24.6442 29.1288 24.5473 28.5534 24.5473C27.9779 24.5473 27.4504 24.6927 26.9228 24.8864C26.3474 25.1285 25.9157 25.419 25.4841 25.8064C25.0525 26.1938 24.7168 26.6296 24.477 27.1623C24.2372 27.6465 24.0934 28.2276 24.0934 28.8086V40.7694C24.0934 41.2052 23.9495 41.5442 23.7097 41.7864C23.4699 42.0285 23.1342 42.1254 22.7026 42.1254H18.7702C18.2906 42.1254 17.9549 42.0285 17.7631 41.7864C17.5712 41.5442 17.4753 41.2052 17.4753 40.7694V28.615C17.4753 27.9371 17.3794 27.4043 17.1876 26.8717C16.9957 26.339 16.708 25.9032 16.3723 25.5643C15.9887 25.2253 15.605 24.9831 15.1254 24.7894C14.6459 24.5957 14.1183 24.4989 13.5429 24.4989C13.0153 24.4989 12.4878 24.6442 11.9603 24.8379C11.4328 25.0316 10.9532 25.3222 10.5695 25.7095C10.1859 26.0485 9.85018 26.5327 9.61039 27.017C9.37061 27.5012 9.22674 28.0823 9.22674 28.6634V40.8179C9.22674 41.2053 9.13082 41.4958 8.89104 41.7379C8.69921 41.98 8.41148 42.077 8.02782 42.077H3.95149C3.51988 42.077 3.18419 41.9315 2.94441 41.6894C2.70462 41.3989 2.6087 41.1083 2.6087 40.7209V19.947C2.6087 19.5112 2.75256 19.1722 3.0403 18.8817C3.32804 18.5911 3.6158 18.4459 3.90354 18.4459H7.02074C7.26052 18.4459 7.50029 18.5912 7.69212 18.7849C7.8839 18.9785 8.02774 19.269 8.17158 19.5595L8.45945 20.5765C8.55531 20.9637 8.60325 21.2541 8.65118 21.5445C8.98687 21.1087 9.3706 20.7218 9.75426 20.3344C10.1859 19.947 10.6175 19.5596 11.145 19.2691C11.6246 18.9301 12.2001 18.688 12.8235 18.4943C13.4469 18.3006 14.1183 18.2038 14.8856 18.2038C15.7009 18.2038 16.4682 18.3006 17.2355 18.4943C18.0029 18.7364 18.6742 18.9786 19.2977 19.3176C19.9211 19.6565 20.4966 20.0439 20.9762 20.4797C21.4557 20.9155 21.8394 21.3998 22.1751 21.9324C22.5588 21.3998 23.0383 20.9155 23.5179 20.4312C23.9975 19.947 24.5729 19.5112 25.1484 19.1723C25.7239 18.8333 26.3473 18.5428 27.0187 18.3491C27.6901 18.1554 28.3615 18.0585 29.0809 18.0585C30.7114 18.0585 32.1022 18.3007 33.2531 18.8333C34.452 19.366 35.4112 20.0439 36.1785 20.964C36.9458 21.884 37.5213 22.9494 37.9049 24.16L38.0488 24.5958C38.0488 24.62 38.0368 24.6321 38.0248 24.6442C38.0128 24.6563 38.0009 24.6684 38.0009 24.6926C37.2815 26.4359 36.9458 28.3244 36.9458 30.2614Z" fill="black"/>
<path fill-rule="evenodd" clip-rule="evenodd" d="M61.9335 25.8548C62.509 27.356 62.7967 28.9055 62.7967 30.6003C62.7008 31.6657 61.8855 32.489 60.8304 32.6342H45.6761C45.8679 33.3606 46.1077 33.9901 46.4914 34.5712C46.875 35.1039 47.3066 35.6365 47.7862 36.0239C48.3617 36.4597 48.9372 36.7988 49.6086 37.0409C50.1361 37.2346 50.7116 37.283 51.2871 37.283C52.1982 37.283 53.0135 37.0408 53.6849 36.605C54.2604 36.2176 54.692 35.8302 55.0277 35.3459C55.2675 35.0069 55.6032 34.8133 55.9868 34.8133H60.1591C61.1182 34.8133 61.6937 35.9271 61.2141 36.8471C61.0703 37.1377 60.8784 37.4767 60.6866 37.7672C60.0631 38.7357 59.2479 39.5588 58.3367 40.3336C57.4255 41.06 56.3225 41.6896 55.1236 42.1254C53.8767 42.5612 52.5339 42.8033 51.0952 42.8033C49.3688 42.8033 47.8342 42.4643 46.3954 41.8348C45.0047 41.2053 43.7578 40.3337 42.7507 39.22C41.6957 38.1062 40.9284 36.8471 40.3529 35.3459C39.7774 33.8448 39.4896 32.2467 39.4896 30.6003C39.4896 28.9055 39.7774 27.356 40.3529 25.8548C40.9284 24.4021 41.7436 23.0947 42.7507 21.9809C43.7578 20.8671 44.9567 19.9954 46.3954 19.3659C47.8342 18.7364 49.3688 18.3974 51.0952 18.3974C52.8217 18.3974 54.4042 18.7364 55.843 19.3659C57.2817 19.9954 58.5285 20.8671 59.5356 21.9809C60.5427 23.0947 61.358 24.3537 61.9335 25.8548ZM47.8342 24.8864C46.9709 25.6127 46.2995 26.5327 45.9159 27.7433H56.1307C55.747 26.5812 55.1716 25.6611 54.3083 24.9347C53.4451 24.2083 52.3901 23.8209 51.1432 23.8209C49.8484 23.8209 48.7453 24.16 47.8342 24.8864Z" fill="black"/>
<path d="M97.7555 40.6727C97.7555 41.1085 97.6117 41.3991 97.3719 41.6412C97.1321 41.8833 96.7964 41.98 96.3648 41.98H92.4323C91.5691 41.98 91.1375 41.5443 91.1375 40.6727V19.7533C91.1375 19.366 91.2334 19.0754 91.4732 18.7849C91.713 18.5427 92.0007 18.3974 92.4323 18.3974H96.3648C96.7005 18.3974 96.9882 18.5427 97.276 18.7849C97.5637 19.027 97.7076 19.366 97.7076 19.7533L97.7555 40.6727Z" fill="black"/>
<path d="M141.539 34.5228C141.299 34.5228 141.011 34.6196 140.676 34.8617C139.573 35.7333 138.326 36.1208 137.031 36.2176C136.264 36.2176 135.544 36.0724 134.921 35.7818C134.297 35.4429 133.77 35.0554 133.29 34.5228C132.859 33.9901 132.475 33.409 132.235 32.6826C131.995 32.0047 131.852 31.2299 131.852 30.4067C131.852 29.6319 131.995 28.9055 132.235 28.1791C132.475 27.4528 132.811 26.8233 133.29 26.2906C133.722 25.7096 134.297 25.2738 134.921 24.9832C135.544 24.6442 136.264 24.499 137.031 24.499C137.702 24.499 138.374 24.5958 138.997 24.8379C139.573 25.0316 140.148 25.3222 140.676 25.7096C141.011 25.9517 141.347 26.097 141.587 26.097C142.066 26.097 142.498 25.8064 142.834 25.1769L144.464 22.3682C144.488 22.3198 144.512 22.2593 144.536 22.1988C144.56 22.1382 144.584 22.0777 144.608 22.0293C144.656 21.9324 144.656 21.7872 144.656 21.6903C144.656 21.3514 144.56 21.0609 144.416 20.8672C144.272 20.625 144.081 20.4797 143.841 20.3344C142.882 19.6565 141.827 19.1239 140.676 18.7849C139.525 18.4459 138.278 18.2522 136.983 18.2522C135.352 18.2522 133.77 18.5428 132.331 19.1723C130.892 19.8018 129.598 20.6735 128.542 21.7388C127.487 22.8042 126.624 24.0631 126.001 25.5643C125.377 27.017 125.042 28.615 125.042 30.3099C125.042 32.0047 125.377 33.5543 126.001 35.0555C126.624 36.5566 127.487 37.8641 128.542 38.9294C129.598 39.9947 130.892 40.8663 132.331 41.4958C133.77 42.1253 135.352 42.4643 136.983 42.4643C138.278 42.4643 139.525 42.2707 140.724 41.8349C141.874 41.399 142.977 40.818 144.033 40.14C144.224 39.9948 144.416 39.8494 144.56 39.6558C144.704 39.4621 144.8 39.22 144.8 38.9779C144.8 38.7842 144.752 38.5419 144.608 38.3482L142.69 35.3459C142.306 34.8133 141.922 34.5228 141.539 34.5228Z" fill="black"/>
<path fill-rule="evenodd" clip-rule="evenodd" d="M123.605 36.024C122.837 34.2323 122.454 32.3438 122.454 30.31C122.454 28.2761 122.837 26.3876 123.605 24.5959C123.844 24.0148 123.988 23.4337 123.988 22.8042V19.9471C123.988 19.4629 123.796 19.0755 123.413 18.785C123.125 18.5428 122.741 18.446 122.358 18.446H119.912C119.625 18.446 119.432 18.446 119.241 18.4944C119.049 18.5428 118.905 18.6396 118.809 18.7365C118.713 18.8333 118.617 18.9787 118.569 19.1724C118.553 19.2393 118.53 19.3119 118.506 19.3903C118.461 19.539 118.409 19.7085 118.377 19.8987L118.09 21.6419C117.802 21.1577 117.466 20.722 117.035 20.2862C116.651 19.8503 116.219 19.4629 115.692 19.1724C115.164 18.8818 114.589 18.5912 113.965 18.3975C113.294 18.2039 112.575 18.1071 111.759 18.1071C110.033 18.1071 108.498 18.3976 107.06 19.0271C105.669 19.6566 104.422 20.5283 103.415 21.5936C102.408 22.6589 101.64 23.9664 101.065 25.4675C100.489 26.9687 100.202 28.5667 100.202 30.31C100.202 32.0048 100.489 33.6028 101.065 35.1039C101.64 36.6051 102.408 37.8642 103.463 38.978C104.47 40.0433 105.717 40.9148 107.107 41.5443C108.498 42.1739 110.081 42.4644 111.759 42.4644H111.855C112.67 42.4644 113.39 42.3675 114.013 42.2222C114.637 42.0285 115.164 41.8349 115.596 41.5443C116.075 41.2538 116.459 40.9148 116.795 40.5274C117.13 40.14 117.466 39.7526 117.754 39.3168C117.754 39.3968 117.768 39.4621 117.782 39.5208C117.792 39.5688 117.802 39.6123 117.802 39.6559C117.802 39.7126 117.818 39.7693 117.832 39.8163C117.842 39.8495 117.85 39.8779 117.85 39.898C117.85 39.9044 117.851 39.9117 117.852 39.9197L117.854 39.9303L117.857 39.9428L117.862 39.9611L117.868 39.9796C117.881 40.0266 117.898 40.0834 117.898 40.1401C117.898 40.2369 117.898 40.3336 117.946 40.4789L118.09 41.0601C118.138 41.2538 118.233 41.3991 118.329 41.5443C118.425 41.6896 118.569 41.7865 118.761 41.8349C118.953 41.8834 119.145 41.9316 119.432 41.9316H122.454C122.885 41.9316 123.221 41.7865 123.557 41.5443C123.844 41.3022 124.036 40.9632 124.036 40.5274V37.5735C124.029 37.5397 124.021 37.5051 124.014 37.4697L123.988 37.3477C123.905 36.948 123.805 36.4692 123.605 36.024ZM117.13 32.7312C116.891 33.4575 116.507 34.087 116.027 34.6197C115.548 35.1523 114.972 35.5398 114.301 35.8787C113.63 36.1693 112.862 36.3145 112.047 36.3145C111.232 36.3145 110.512 36.1693 109.841 35.8787C109.17 35.5882 108.594 35.1523 108.163 34.6197C107.683 34.087 107.347 33.4575 107.06 32.7312C106.82 32.0048 106.676 31.23 106.676 30.4068C106.676 29.5836 106.82 28.8088 107.06 28.0824C107.299 27.356 107.683 26.7265 108.163 26.1454C108.642 25.6128 109.17 25.177 109.841 24.838C110.512 24.499 111.232 24.3538 112.047 24.3538C112.91 24.3538 113.678 24.499 114.349 24.838C115.02 25.177 115.596 25.6128 116.027 26.1454C116.507 26.6781 116.843 27.356 117.083 28.0824C117.322 28.8088 117.466 29.5836 117.466 30.4068C117.514 31.23 117.37 32.0048 117.13 32.7312Z" fill="black"/>
<path d="M163.119 40.9628C163.263 41.3018 163.503 41.544 163.742 41.7377C164.03 41.9314 164.366 42.0282 164.749 41.9798H167.339C167.819 41.9798 168.202 41.8346 168.442 41.5925C168.682 41.3504 168.778 41.0113 168.778 40.5271V19.7046C168.778 19.3173 168.682 18.9783 168.442 18.7362C168.202 18.494 167.867 18.3489 167.387 18.3489H163.55C162.639 18.3489 162.16 18.7847 162.16 19.6563V31.7623C162.16 32.3919 162.016 32.9245 161.728 33.4572C161.488 33.9414 161.105 34.3772 160.673 34.7646C160.241 35.152 159.762 35.4426 159.234 35.6363C158.659 35.83 158.179 35.9268 157.652 35.9268C157.028 35.9268 156.501 35.83 155.973 35.6363C155.446 35.4426 155.014 35.152 154.678 34.7646C154.343 34.3772 154.055 33.9414 153.863 33.4087C153.671 32.8761 153.575 32.295 153.575 31.617V19.7046C153.575 19.2688 153.48 18.9299 153.288 18.6878C153.096 18.4457 152.76 18.3489 152.233 18.3489H148.348C147.964 18.3489 147.677 18.494 147.389 18.7362C147.149 19.0267 147.005 19.3658 147.005 19.8016V32.7792C147.005 34.1835 147.197 35.4426 147.581 36.6048C147.965 37.7669 148.54 38.7838 149.307 39.607C150.075 40.4787 151.034 41.1082 152.137 41.5925C153.24 42.0767 154.535 42.3188 156.021 42.3188C156.789 42.3188 157.508 42.1735 158.131 41.9798C158.755 41.7377 159.33 41.4472 159.858 41.1082C160.385 40.7693 160.865 40.3819 161.296 39.9461C161.728 39.5103 162.112 39.1228 162.495 38.687C162.543 38.8806 162.591 39.0863 162.639 39.2921C162.687 39.498 162.735 39.7039 162.783 39.8976C162.831 40.285 162.975 40.6723 163.119 40.9628Z" fill="black"/>
<path d="M92.3363 9.10001H96.6044C97.2279 9.10001 97.7554 9.63263 97.7554 10.2621V14.572C97.7554 15.2015 97.2279 15.7341 96.6044 15.7341H92.3363C91.7128 15.7341 91.1853 15.2015 91.1853 14.572V10.2621C91.1853 9.63263 91.7128 9.10001 92.3363 9.10001Z" fill="black"/>
<path fill-rule="evenodd" clip-rule="evenodd" d="M193.381 35.9749C192.662 34.1832 192.278 32.2947 192.278 30.2609C192.278 28.3239 192.614 26.4353 193.333 24.6921C193.381 24.5468 193.429 24.45 193.477 24.3531C192.997 23.3846 192.422 22.5131 191.703 21.7383C190.696 20.6245 189.497 19.7528 188.154 19.1233C186.763 18.4938 185.276 18.1548 183.694 18.1548C183.07 18.1548 182.543 18.2033 181.967 18.3486C181.44 18.4938 180.912 18.6392 180.481 18.8812C180.001 19.1233 179.57 19.3655 179.186 19.656C178.802 19.9465 178.419 20.2855 178.131 20.6245V10.3586C178.131 9.68064 177.603 9.14797 176.932 9.14797H172.712C172.04 9.14797 171.513 9.68064 171.513 10.3586V40.6237C171.513 41.0595 171.609 41.3501 171.848 41.6407C172.088 41.8828 172.424 42.028 172.856 42.0764H175.925C176.117 42.0764 176.356 42.0279 176.5 41.931C176.692 41.8342 176.836 41.7375 176.98 41.5922C177.124 41.4469 177.22 41.2048 177.316 40.9143L177.555 39.5583C178.371 40.5752 179.234 41.3501 180.241 41.8343C181.2 42.367 182.399 42.6091 183.838 42.6091C185.42 42.6091 186.859 42.2702 188.25 41.6407C189.593 41.0111 190.791 40.1393 191.799 39.0256C192.518 38.2024 193.141 37.3308 193.621 36.3139C193.429 36.1203 193.381 36.0717 193.381 35.9749ZM187.722 32.6821C187.434 33.4084 187.051 34.038 186.571 34.5707C186.092 35.1033 185.516 35.5391 184.893 35.8296C184.269 36.1202 183.55 36.3139 182.831 36.3139C182.111 36.3139 181.392 36.1686 180.768 35.8296C180.097 35.5391 179.57 35.1033 179.042 34.5707C178.562 34.038 178.179 33.4085 177.843 32.7305C177.555 32.0042 177.411 31.2294 177.411 30.4546C177.411 29.583 177.555 28.8081 177.843 28.0818C178.131 27.3554 178.514 26.6775 178.994 26.1448C179.474 25.6121 180.049 25.1763 180.72 24.8374C181.392 24.4984 182.063 24.3531 182.831 24.3531C183.55 24.3531 184.269 24.4984 184.893 24.8374C185.516 25.1763 186.092 25.6121 186.571 26.1448C187.051 26.6775 187.434 27.307 187.722 28.0334C188.01 28.7598 188.154 29.5345 188.154 30.3577C188.154 31.1809 188.01 31.9557 187.722 32.6821Z" fill="black"/>
<path d="M211.318 34.7649H215.49C216.449 34.7649 217.024 35.8786 216.545 36.944C216.401 37.2345 216.209 37.5734 216.017 37.864C215.394 38.8325 214.579 39.6558 213.667 40.4306C212.756 41.157 211.653 41.7863 210.454 42.2221C209.207 42.658 207.865 42.9 206.426 42.9C204.7 42.9 203.165 42.5611 201.726 41.9316C200.335 41.302 199.089 40.4305 198.082 39.3167C197.026 38.2029 196.259 36.9439 195.684 35.4428C195.108 33.9416 194.82 32.3437 194.82 30.6973C194.82 29.0024 195.108 27.4528 195.684 25.9517C196.259 24.499 197.074 23.1915 198.082 22.0777C199.089 20.964 200.288 20.0923 201.726 19.4628C203.165 18.8333 204.7 18.4943 206.426 18.4943C208.152 18.4943 209.735 18.8333 211.174 19.4628C211.366 19.5596 211.461 19.7533 211.461 19.947V27.8402C211.078 26.7264 210.502 25.7579 209.639 25.0316C208.776 24.3052 207.721 23.9179 206.474 23.9179C205.179 23.9179 204.076 24.2568 203.165 24.9832C202.254 25.7096 201.582 26.678 201.199 27.8402H211.413V31.0846C211.413 31.9078 210.742 32.5858 209.927 32.5858H201.007C201.199 33.3121 201.438 33.9417 201.822 34.5227C202.206 35.0554 202.637 35.5881 203.117 35.9755C203.692 36.4113 204.268 36.7503 204.939 36.9924C205.467 37.1861 206.042 37.2345 206.618 37.2345C207.529 37.2345 208.344 36.9924 209.016 36.5565C209.543 36.1691 210.023 35.7818 210.358 35.2976C210.598 34.9586 210.934 34.7649 211.318 34.7649Z" fill="black"/>
<path d="M227.669 9.10001H223.981C218.617 9.10001 214.258 13.5015 214.258 18.9187V30.9623C214.258 31.7846 214.929 32.4618 215.743 32.4618H227.669C233.033 32.4618 237.392 28.0603 237.392 22.643V18.9187C237.392 13.5015 233.081 9.10001 227.669 9.10001Z" fill="#E30040"/>
<path d="M230.539 20.2731L222.923 15.8231C222.54 15.5813 222.061 15.8715 222.061 16.3552V25.2549C222.061 25.6902 222.54 25.9805 222.923 25.787L230.539 21.3371C230.97 21.0953 230.97 20.5149 230.539 20.2731Z" fill="white"/>
</svg>
