<svg width="22" height="23" viewBox="0 0 22 23" fill="none" xmlns="http://www.w3.org/2000/svg">
<path fill-rule="evenodd" clip-rule="evenodd" d="M14.7602 2.42145L13.2349 1.25632C11.9154 0.248156 10.0854 0.248281 8.76585 1.25632L7.2392 2.42174L5.34086 2.67412C3.69346 2.89247 2.39663 4.18794 2.17677 5.83551L1.92204 7.74049L0.755424 9.26628C-0.251772 10.5847 -0.251704 12.4155 0.755492 13.7339L1.92164 15.2601L2.17333 17.1594C2.39155 18.807 3.68723 20.1039 5.33494 20.3237L7.2403 20.5785L8.76597 21.7439C10.0856 22.7521 11.9153 22.7521 13.2349 21.7438L14.7615 20.5774L16.6593 20.3261C18.3071 20.1079 19.6043 18.8124 19.824 17.1645L20.0778 15.2594L21.2441 13.734C22.253 12.4138 22.2508 10.5844 21.2446 9.26561L20.0803 7.73937L19.8285 5.83964C19.6103 4.19191 18.3146 2.89495 16.6667 2.67525L14.7602 2.42145ZM8.28565 4.13904C8.14376 4.26004 7.96669 4.34261 7.76908 4.36889L5.60444 4.65667C4.85201 4.75629 4.25952 5.34771 4.15923 6.09985L3.86915 8.26917C3.84606 8.4419 3.77822 8.60559 3.67237 8.74403L2.34473 10.4804C1.88538 11.082 1.88521 11.9182 2.34473 12.5197L3.67256 14.2574C3.77854 14.3961 3.84638 14.5602 3.86931 14.7332L4.156 16.8966C4.25561 17.6489 4.84696 18.241 5.59925 18.3413L7.7687 18.6313C7.94128 18.6544 8.10485 18.7221 8.24321 18.8278L9.98003 20.1545C10.5828 20.6151 11.4178 20.6152 12.0206 20.1546L13.7148 18.8602C13.8568 18.739 14.0342 18.6563 14.2322 18.63L16.3968 18.3434C17.1492 18.2437 17.7412 17.6524 17.8415 16.9003L18.1304 14.7314C18.1535 14.5585 18.2213 14.3947 18.3273 14.2561L19.655 12.5196C20.1151 11.9175 20.1151 11.0824 19.6546 10.4789L18.3288 8.74092C18.2231 8.60235 18.1554 8.43855 18.1326 8.26578L17.8459 6.10239C17.7463 5.35017 17.155 4.75814 16.4028 4.65776L14.2326 4.36886C14.0598 4.34586 13.8961 4.2781 13.7575 4.17229L12.0207 2.84558C11.418 2.38501 10.5829 2.38491 9.98016 2.84549L8.28565 4.13904Z" fill="#2F50F4"/>
<path d="M9.16556 9.67627C9.5088 9.3992 9.63828 8.9167 9.4514 8.49401C9.22809 7.98889 8.63757 7.76044 8.13245 7.98375C7.99396 8.04498 7.86484 8.13173 7.75296 8.24242C7.64421 8.35 7.55801 8.4742 7.49593 8.60784C7.26324 9.10871 7.48064 9.70338 7.98151 9.93607C8.39901 10.13 8.88168 10.0113 9.16556 9.67627Z" fill="#2F50F4"/>
<path d="M14.0404 9.87379C14.431 9.48327 14.431 8.85011 14.0405 8.45957C13.65 8.06904 13.0168 8.06902 12.6263 8.45953L7.95919 13.1263C7.56865 13.5168 7.56863 14.15 7.95915 14.5405C8.34966 14.9311 8.98282 14.9311 9.37336 14.5406L14.0404 9.87379Z" fill="#2F50F4"/>
<path d="M14.5546 14.2689C14.7335 13.7464 14.4551 13.1778 13.9326 12.9988C13.5172 12.8566 13.0727 13.0034 12.8179 13.3321C12.4942 13.5951 12.358 14.0446 12.5115 14.4571C12.7041 14.9747 13.2799 15.2382 13.7975 15.0456C13.9634 14.9839 14.1181 14.8867 14.2491 14.7564C14.3905 14.6161 14.4932 14.4483 14.5546 14.2689Z" fill="#2F50F4"/>
</svg>
